<svg xmlns="http://www.w3.org/2000/svg" width="432" height="432" overflow="visible"><style>.st1{fill:#231f20}</style><path className="st1" d="M26.4 221.8c-12 0-17.7-8.3-17.7-17.4-.1-9 5.8-17.7 17.7-17.7 4.5 0 9 1.7 12.4 5.1l-2.9 2.7c-2.6-2.6-6.1-3.8-9.5-3.8-9.1 0-13.6 6.6-13.5 13.7.1 6.9 4.3 13.4 13.5 13.4 3.5 0 7.1-1.4 9.7-3.9l3 2.9c-3.5 3.4-8 5-12.7 5zM75.4 204.4c0 8.9-5.6 17.6-17.3 17.6s-17.3-8.7-17.3-17.6c0-9.9 6.6-17.7 17.4-17.7 11.5 0 17.3 8.7 17.2 17.7zm-17.2-13.9c-8.7 0-13.1 6.4-13.1 13.8 0 6.9 4.2 13.6 13.1 13.6 8.9 0 13-6.9 13-13.6 0-6.8-4.1-13.7-13-13.8zM98.3 210.6h-.9L85 193.3v28h-4.2v-34h5.1l12 17.5 11.9-17.5h5.1v34h-4.2v-27.9l-12.4 17.2zM126.6 221.3h-4.2v-34h15.5c15.7 0 15.7 23 0 23h-11.3v11zm11.2-30.1h-11.3v15.2h11.3c10.1-.1 10.1-15.2 0-15.2zM175.6 215.4h-17.5l-2.5 5.8h-8.2l15.3-34h8.3l15.3 34h-8.2l-2.5-5.8zm-8.7-20.5l-5.9 13.8h11.7l-5.8-13.8zM216.5 217.1c-3.5 3.5-8 5-13.1 5-13 0-18.1-8.4-18.2-17.6 0-8.8 5.7-18 18.2-18 4.7 0 9 1.8 12.5 5.3l-4.8 4.7c-2-2-5-2.8-7.7-2.8-7.7 0-10.7 6-10.7 10.9 0 5 2.7 10.6 10.7 10.6 2.7 0 6.3-1.2 8.4-3.3l4.7 5.2zM227 194h-10.4v-6.8h28.2v6.8h-10.4v27.3H227V194zM252.1 217.7c0 5.2-8 5.2-8 0s8-5.2 8 0zM282.9 187.2v4h-19.4v11.9h18.6v3.9h-18.6v14.2h-4.2v-34.1h23.6zM302.3 187.2l15.3 34H313l-3.4-7.5h-19.4l-3.3 7.5h-4.6l15.3-34h4.7zm-2.3 4.3l-8.1 18.4H308l-8-18.4zM338.9 210.6h-.9l-12.3-17.3v28h-4.2v-34h5.1l12 17.5 11.9-17.5h5.1v34h-4.2v-27.9l-12.5 17.2zM363 187.2h4.2v34H363v-34zM379.1 217.3h18.5v3.9h-22.8v-34h4.2v30.1zM392.9 187.4v-.1h5.2l10.2 16.1 10.5-16.1h5.2v.1l-13.4 20.1v13.8h-4.4v-13.8l-13.3-20.1z"/></svg>