<svg xmlns="http://www.w3.org/2000/svg" width="432" height="432" overflow="visible"><style>.st1{fill:#231f20}</style><path className="st1" d="M218.6 144.6c-23.9 0-45.5 9.7-61.1 25.3-6.5 6.5-12 14-16.1 22.3h20.1c12.4-18.3 33.4-30.3 57.1-30.3 23.7 0 44.7 12 57.1 30.3h20.1c-4.2-8.3-9.6-15.8-16.1-22.3-15.6-15.6-37.2-25.3-61.1-25.3zM218.6 322.9c-36.7 0-68.4-21.5-83.1-52.6h-60l2.4 3.8 44.1 2.4c17.1 36.3 54 61.4 96.7 61.4s79.6-25.1 96.7-61.4l44.1-2.4 2.4-3.8h-60.1c-14.8 31.1-46.5 52.6-83.2 52.6z"/><path className="st1" d="M218.6 139.1c36.9 0 68.7 21.7 83.3 53.1h59.8l-2.4-3.8-43.9-2.4c-17-36.5-54-61.8-96.9-61.8s-79.9 25.3-96.9 61.8l-43.9 2.4-2.4 3.8h59.8c14.8-31.3 46.6-53.1 83.5-53.1zM218.6 317.5c23.9 0 45.5-9.7 61.1-25.3 6.4-6.4 11.8-13.7 15.9-21.9h-20.2c-12.5 18-33.2 29.8-56.8 29.8-23.6 0-44.3-11.8-56.8-29.8h-20.2c4.1 8.1 9.5 15.5 15.9 21.9 15.6 15.6 37.2 25.3 61.1 25.3z"/><g><path className="st1" d="M293.6 250h-25.8l-3.8 9.5h-17.3l25.9-57.7h16.5l25.8 57.7h-17.5l-3.8-9.5zm-12.9-32l-7.4 18.4h14.8l-7.4-18.4zM365.4 252c-6.5 6.4-14.4 9-23.1 9-22.7 0-31.5-14.3-31.6-29.9-.1-14.8 9.9-30.6 31.6-30.6 8.3 0 15.8 2.9 22.3 9.2l-10.1 9.9c-4.1-4-8.4-5-12.3-5-11.1 0-15.5 9.1-15.4 16.6.1 7.5 4 16 15.4 16 3.9 0 9.5-1.6 13.6-5.8l9.6 10.6zM383.1 215.3h-16.8v-13.4h49.9v13.4h-16.9v44.2h-16.2v-44.2z"/></g><g><path className="st1" d="M41.7 260.4c-20.3 0-30-14.1-30.1-29.4-.2-15.2 9.8-30.1 30.1-30.1 7.7 0 15.2 2.9 21.1 8.7l-4.9 4.6c-4.4-4.4-10.3-6.4-16.2-6.4-15.5 0-23 11.2-22.9 23.2.2 11.7 7.3 22.7 22.9 22.7 5.9 0 12-2.3 16.4-6.7l5 4.9c-5.9 5.7-13.5 8.5-21.4 8.5zM163.4 241.4H162l-21-29.3v47.5h-7.1v-57.7h8.6l20.3 29.7 20.1-29.7h8.6v57.7h-7.1v-47.3l-21 29.1zM211.4 259.5h-7.1v-57.7h26.2c26.5 0 26.5 39 0 39.1h-19.1v18.6zm19.1-51h-19.1v25.7h19.1c17 0 17-25.7 0-25.7zM124.7 230.8c-.1 15.1-9.5 29.8-29.2 29.8-19.8 0-29.3-14.7-29.3-29.8 0-16.7 11.2-30 29.4-30 19.5.1 29.2 14.8 29.1 30zm-29.1-23.4c-14.7 0-22.3 10.8-22.3 23.4 0 11.7 7.1 23.1 22.3 23.1 15.2 0 22-11.7 22-23.1 0-11.7-7-23.2-22-23.4z"/></g><g><path className="st1" d="M425.8 201.2c0 1.9-1.3 3.5-3.5 3.5s-3.5-1.6-3.5-3.5 1.3-3.5 3.5-3.5 3.5 1.6 3.5 3.5zm-3.5 2.6c1.6 0 2.5-1.2 2.5-2.6s-.9-2.6-2.5-2.6-2.5 1.2-2.5 2.6c0 1.5.9 2.6 2.5 2.6zm.8-2.1c1.3-.3 1-2.3-.5-2.3h-1.7v3.6h.9v-1.1h.3l.8 1.1h1v-.2l-.8-1.1zm-.5-1.4c.6 0 .6.8 0 .8h-.8v-.8h.8z"/></g></svg>