<svg data-name="Layer 1" xmlns="http://www.w3.org/2000/svg" viewBox="0 0 1515.1 1080">

  <path d="M294.2 311a512.6 512.6 0 0 1 917 0h20.2a530.8 530.8 0 0 0-957.4 0ZM1207.3 777.8c-85.6 163.6-257 275.3-454.6 275.3s-369-111.7-454.5-275.3h-20.4c87.2 174 267 293.4 475 293.4s387.7-119.5 474.8-293.4Z" fill="#fff"/>
  <path d="M757 254a294 294 0 0 0-262.6 162h68.4a234.7 234.7 0 0 1 388.3 0h68.4A294 294 0 0 0 757 254ZM757 860.2a312.3 312.3 0 0 1-282.5-179H270.4l8 13 149.9 8.2a363.2 363.2 0 0 0 657.3 0l150-8.2 8-13h-204.2a312.3 312.3 0 0 1-282.4 179Z" fill="#fff"/>
  <path d="M757 235.4A312.3 312.3 0 0 1 1040.2 416h203.3l-8-12.9-149.1-8.2a363.3 363.3 0 0 0-658.9 0l-149 8.2-8 13h203.2A312.4 312.4 0 0 1 757 235.4ZM757 841.6a294.2 294.2 0 0 0 261.7-160.4H950a234.6 234.6 0 0 1-386 0h-68.8A294 294 0 0 0 757 841.6ZM1011.8 612.4h-87.6l-13 32.2h-58.7l87.9-196h56l87.6 196h-59.3Zm-43.7-109L943 566h50.2ZM1255.8 619.1a107.1 107.1 0 0 1-78.7 30.5c-77 0-107-48.4-107.2-101.6-.3-50.4 33.6-103.9 107.2-103.9a105 105 0 0 1 76 31.4l-34.3 33.6a57.7 57.7 0 0 0-41.7-17.1c-37.8 0-52.6 30.8-52.3 56.3s13.7 54.3 52.3 54.3c13.2 0 32.2-5.6 46.2-19.9ZM1315.9 494.2h-57.1v-45.6h169.7v45.6H1371v150.4H1316ZM155.6 647.7c-69.1 0-101.9-47.9-102.2-100-.5-51.8 33.4-102.2 102.2-102.2a101.5 101.5 0 0 1 71.7 29.4l-16.8 15.7a77.7 77.7 0 0 0-54.9-21.8c-52.6 0-78 38-77.8 78.7.6 39.7 25 77 77.8 77a80 80 0 0 0 55.8-22.7l17 16.8c-19.8 19.6-45.9 29-72.8 29ZM569.5 583h-5l-71.1-99.7v161.3h-24.2v-196h29.2l68.9 100.8 68.3-100.8h29v196h-24V484ZM732.4 644.6h-24v-196h89c90.1 0 90.1 132.5 0 132.7h-65Zm65-173.3h-65v87.4h65c57.7 0 57.7-87.4 0-87.4ZM437.9 547.2c-.3 51.2-32.2 101.3-99.4 101.3s-99.7-49.8-99.7-101.3c0-56.9 38-102 100-102 66.3.3 99.4 50.2 99.1 102Zm-99.1-79.6c-49.9 0-75.6 36.7-75.6 79.6 0 39.7 24 78.4 75.6 78.4s74.7-39.8 74.7-78.4c.3-39.8-23.5-79-74.7-79.6ZM1461 446.5c0 6.5-4.2 12-12 12s-11.9-5.5-11.9-12 4.3-12 12-12 12 5.4 12 12Zm-12 8.9c5.4 0 8.5-4 8.5-9s-3-8.8-8.4-8.8-8.4 3.9-8.5 8.9 3.2 8.9 8.5 8.9Zm3-7.3c4.3-1 3.4-7.7-2-7.7h-5.7v12.1h3.2v-3.7h1.1l3 3.7h3.4v-.7Zm-2-4.8a1.4 1.4 0 1 1 0 2.7h-2.5v-2.7ZM456.1 824.4l8.4 8.5-27.3 60.2-8.6-8.7 5.7-12.4-17.7-18-12.6 5.4-8.5-8.7Zm-7.4 15.8-20.9 9 11.6 11.7ZM514.9 875.8l11.8 7.4q11.3 7.1 15.1 13.4a26 26 0 0 1 3.4 15 35 35 0 0 1-5.7 17 35.4 35.4 0 0 1-9 9.9 27.4 27.4 0 0 1-10.9 5 23 23 0 0 1-10.5-.2q-5-1.4-15-7.7l-12-7.5Zm3.8 15.8-20.6 33 4.6 2.9q6.8 4.3 10.9 4.6a14 14 0 0 0 8.3-2 22.8 22.8 0 0 0 7.7-8q5.2-8.3 3.4-15.8-1.6-6.7-10.9-12.6ZM622.4 928.1a30.6 30.6 0 0 1 18.2 16.2 31.5 31.5 0 0 1 1.6 25A31.2 31.2 0 0 1 626 988a30.6 30.6 0 0 1-24.3 1.6q-13.2-4.5-18.8-16.5a32.4 32.4 0 0 1 39.5-45Zm-3.8 10.9a19.4 19.4 0 0 0-15.6 1 20.8 20.8 0 0 0-10.4 12.4q-3.2 9.7 1.8 17.7a20.1 20.1 0 0 0 11 8.6 19.2 19.2 0 0 0 15.3-1.1 21.8 21.8 0 0 0 9.5-28.3 19.3 19.3 0 0 0-11.6-10.3ZM695.5 947.4l12.4 1.2q10 1 14.3 3.3a14.8 14.8 0 0 1 6.4 6.7 18.7 18.7 0 0 1 1.6 10.2 16.8 16.8 0 0 1-4.4 10.4 17.5 17.5 0 0 1-9.7 5q-3.5.6-12.4-.3l-2.5 26-11.7-1.1Zm9.3 25.2 3.7.3a20.6 20.6 0 0 0 6.2 0 5.5 5.5 0 0 0 2.9-1.8 6 6 0 0 0 1.3-3.4 5.6 5.6 0 0 0-2.2-5.4c-1.3-1-3.7-1.6-7.3-2l-3.3-.3ZM782.5 950.3l33.9-4 1.3 11.6-11.2 1.3 5.8 49.7-11.8 1.4-5.8-49.8-10.9 1.3ZM875.5 932.2l11.1-3.7 19.3 58.6-11 3.7ZM966.2 889.3a30.6 30.6 0 0 1 24.2-3.6 31.5 31.5 0 0 1 20 14.8 31.2 31.2 0 0 1 4 24.3 30.7 30.7 0 0 1-14.3 19.8q-11.9 7.2-24.7 3.8a32.4 32.4 0 0 1-9.1-59Zm6 9.9a19.4 19.4 0 0 0-9.2 12.6q-1.9 8 2.9 16 5.3 8.7 14.7 10a20.2 20.2 0 0 0 13.6-2.9 19.2 19.2 0 0 0 9-12.5 21.8 21.8 0 0 0-15.6-25.5 19.3 19.3 0 0 0-15.5 2.3ZM1028.6 845.5l7.9-8 47.5 9.5-29-28.4 8.2-8.4 44 43.2-7.8 8-47.4-9.4 28.9 28.3-8.2 8.4Z" fill="#fff"/>
  <path d="m351.3 292.8 7.9-11.3 22 15.3 13.6-19.5-22.1-15.3 7.8-11.2 58.5 40.5-7.8 11.3-25.7-17.8-13.5 19.5 25.6 17.8-7.8 11.3ZM425.2 201.8l9.8-9.2 48.8 51.9-9.8 9.2ZM549.9 127l-3.5 13q-12.7-3.7-23 2.3a24.1 24.1 0 0 0-11.8 14.9 22.8 22.8 0 0 0 2.3 18.2 23.4 23.4 0 0 0 15.1 11.4 25 25 0 0 0 19.4-3 22.3 22.3 0 0 0 8.7-8.4 20.8 20.8 0 0 0 2.1-11.9l-17.8 10.3-6.4-11 31-18 1.6 2.6a34.9 34.9 0 0 1 4.7 17.7 33.8 33.8 0 0 1-4.5 17.4 35.6 35.6 0 0 1-13.4 12.8 40.1 40.1 0 0 1-19.5 5.8 35.1 35.1 0 0 1-18.7-5 38.2 38.2 0 0 1-14-14.1 35.7 35.7 0 0 1-4.3-26q3.4-16.3 18.7-25.2a43.9 43.9 0 0 1 16.8-5.8 39.8 39.8 0 0 1 16.5 2ZM611.1 90.6l13.3-3.4 6.7 26 23-6-6.7-26 13.3-3.4 17.7 69-13.2 3.4-7.8-30.2-23 5.9 7.8 30.2-13.3 3.4ZM729.4 69.8l13.5-.3 1.2 58.2 19.7-.4.3 13-33.3.6ZM846.5 78.8l13.4 3 11.5 75.3-13.7-3-2.3-15.5-28.4-6.2-8.8 13-13.8-3Zm2.7 20-14.5 21.8 18.6 4ZM947.4 110.6l11.5 6 5.1 55.7 21.8-41.4 12 6.3-33.1 63-11.6-6-5.1-55.6-21.8 41.3-12-6.3ZM1055.1 178.2l11.7 11q11.4 10.6 14.3 18.5t.5 17.6a43.8 43.8 0 0 1-22.5 27.3 31.5 31.5 0 0 1-13.3 3.3 26.7 26.7 0 0 1-12-2.5q-5.2-2.6-15.3-12l-12-11.1Zm1 18.8-30.7 32.8 4.6 4.3q6.8 6.3 11.3 7.6a16 16 0 0 0 9.9-.6 26.2 26.2 0 0 0 10.4-7.2q7.7-8.3 7.4-17.2-.4-8-9.6-16.6ZM1149.8 304.6l-12.8-3.7q3.3-8.4.3-13a6.5 6.5 0 0 0-3.6-2.8 4.1 4.1 0 0 0-3.6.3 5.5 5.5 0 0 0-2.2 2.9q-.9 2.5-2.3 13.3-1.1 10-1.7 12.3a28.5 28.5 0 0 1-3.4 9.3 20 20 0 0 1-6 6 19 19 0 0 1-15.5 2.8q-8-2-13.4-10a23.6 23.6 0 0 1-4-13.2q0-6.8 4.4-14.5l12 5.8q-5 9.4-1.4 15a8.7 8.7 0 0 0 5 3.8 6 6 0 0 0 5.1-.5 8.1 8.1 0 0 0 3.1-4.2q1-2.8 1.9-10.6 1.6-15 4-20.6a18.5 18.5 0 0 1 6.8-8.5 16.8 16.8 0 0 1 13.7-2.2 19.6 19.6 0 0 1 12 8.8 22 22 0 0 1 3.5 9.8q.5 5.4-1.9 13.7Z" fill="#fff"/>
</svg>