<svg xmlns="http://www.w3.org/2000/svg" width="800" height="630" overflow="visible"><style>.st1{fill:#fff}</style>

<path className="st1" d="M649.8 447.8C602 539.1 506.5 601.4 396.3 601.4s-205.7-62.3-253.5-153.6h-11.3c48.6 97 148.9 163.7 264.8 163.7s216.2-66.6 264.8-163.7h-11.3zM140.6 187.4c47-93.7 143.8-157.9 255.7-157.9S605 93.9 652 187.4h11.2C615.5 88.1 514 19.5 396.3 19.5S177.1 88.1 129.4 187.4h11.2z"/><path className="st1" d="M398.7 155.8c-45.3 0-86.2 18.4-115.9 48-12.3 12.3-22.7 26.6-30.6 42.3h38.1c23.6-34.6 63.3-57.4 108.2-57.4s84.7 22.7 108.2 57.4H545c-7.9-15.7-18.3-30-30.6-42.3-29.6-29.7-70.5-48-115.7-48zm0 338c-69.6 0-129.6-40.8-157.6-99.8H127.3l4.5 7.2 83.5 4.6c32.5 68.7 102.3 116.3 183.3 116.3S549.5 474.5 582 405.8l83.5-4.6 4.5-7.2H556.2c-27.9 59-87.9 99.8-157.5 99.8z"/><path className="st1" d="M398.7 145.4c70 0 130.2 41.2 157.9 100.7H670l-4.5-7.2-83.2-4.6C550.2 165 480.1 117.1 398.7 117.1s-151.5 48-183.7 117.2l-83.1 4.6-4.5 7.2h113.4c27.6-59.5 88-100.7 157.9-100.7zm0 338c45.3 0 86.2-18.4 115.9-48 12.1-12.1 22.3-26 30.2-41.4h-38.4c-23.6 34.1-63.1 56.4-107.7 56.4s-84-22.3-107.7-56.4h-38.4c7.8 15.4 18.1 29.3 30.2 41.4 29.7 29.6 70.6 48 115.9 48zM540.8 355.6h-48.9l-7.1 17.9H452l49-109.3h31.2l48.9 109.3H548l-7.2-17.9zm-24.4-60.8l-14.1 34.8h28l-13.9-34.8zm160.4 64.6c-12.3 12.2-27.3 17-43.8 17-42.9 0-59.6-27-59.8-56.7-.1-28.1 18.7-57.9 59.8-57.9 15.8 0 30 5.5 42.3 17.5l-19 18.7c-7.8-7.5-15.9-9.5-23.3-9.5-21.1 0-29.4 17.2-29.2 31.4.1 14.2 7.7 30.3 29.2 30.3 7.3 0 17.9-3.1 25.8-11.1l18 20.3zm33.6-69.7h-31.9v-25.5h94.6v25.5h-32v83.8h-30.7v-83.8zM63.4 375.2c-38.6 0-56.9-26.7-57-55.7-.3-28.9 18.6-57 57-57 14.5 0 28.9 5.5 40 16.4l-9.4 8.8c-8.4-8.3-19.5-12.2-30.6-12.2-29.4 0-43.6 21.2-43.4 43.9.3 22.2 13.9 42.9 43.4 42.9 11.1 0 22.8-4.3 31.1-12.7l9.5 9.4c-11.1 11-25.6 16.2-40.6 16.2zm230.7-36h-2.8l-39.6-55.6v89.9h-13.4V264.2h16.2l38.4 56.2 38.1-56.2h16.2v109.3h-13.4v-89.7l-39.7 55.4zm90.9 34.3h-13.4V264.2h49.7c50.3 0 50.3 73.9 0 74h-36.2l-.1 35.3zm36.2-96.6H385v48.7h36.2c32.2 0 32.2-48.7 0-48.7zm-200.4 42.3c-.1 28.6-17.9 56.5-55.4 56.5s-55.6-27.8-55.6-56.5c0-31.7 21.2-56.9 55.7-56.9 37 .2 55.4 28 55.3 56.9zm-55.3-44.4c-27.8 0-42.2 20.5-42.2 44.3 0 22.2 13.4 43.7 42.2 43.7s41.7-22.2 41.7-43.7c.1-22.1-13.1-43.9-41.7-44.3zM794 263.1c0 5.1-3.3 9.5-9.4 9.5-6 0-9.3-4.3-9.3-9.5 0-5.1 3.3-9.5 9.3-9.5 6.1 0 9.4 4.4 9.4 9.5zm-9.3 7c4.2 0 6.6-3.1 6.6-7s-2.3-7-6.6-7c-4.2 0-6.5 3.1-6.6 7 0 3.9 2.4 7 6.6 7zm2.2-5.7c3.4-.8 2.8-6-1.4-6H781v9.5h2.5V265h.9l2.3 2.9h2.7v-.6l-2.5-2.9zm-1.4-3.9c1.5 0 1.5 2.2 0 2.2h-2v-2.2h2zM207.5 445.6l3.9 5.1-13.9 21.1 23.8-8.5 3.9 5.1-23.5 25.8-3.9-5 14.8-16.3-21.6 7.7-3.6-4.6 12.6-19.1-19.4 10.5-3.9-5.1 30.8-16.7zm52.6 53.9l5.4 3.8-9.3 35.7-5.6-4 1.9-7.3-11.4-8.2-6.4 4.1-5.6-4 31-20.1zm-2.5 9.4l-10.6 6.9 7.5 5.3 3.1-12.2zm43.2 14.9l17.6 7.3-2.4 6-5.8-2.3-10.6 25.8-6.1-2.5 10.6-25.8-5.6-2.3 2.3-6.2zm47.1 15.6l18.5 3.3-1.1 6.3-12.1-2.1-1.1 6.1 12.1 2.1-1.1 6.2-12.1-2.1-1.6 8.9 12.1 2.1-1.1 6.3-18.5-3.3 6-33.8zm51.1 5.2l6.9-.4c3.8-.2 6.5 0 8.2.6 1.6.6 3 1.6 4.1 3.1 1.1 1.5 1.6 3.3 1.8 5.5.1 2.3-.3 4.2-1.4 5.8-1 1.6-2.6 2.8-4.7 3.7l9 14.8-7.1.4-8.5-14.2h-.6l.8 14.5-6.5.4-2-34.2zm7.2 13.1l2.1-.1c2.1-.1 3.5-.5 4.3-1.1s1.1-1.5 1-2.8c-.1-.8-.3-1.4-.7-1.9-.4-.6-.9-.9-1.6-1.1-.6-.2-1.9-.3-3.6-.1l-1.8.1.3 7zm45.4-19.6l6-1.9 20.8 17.2-6.8-21.6 6.3-1.9 10.2 32.8-6 1.9-20.8-17.2 6.8 21.6-6.3 1.9-10.2-32.8zm56.4-22.8l5.6-3.3 17.2 29.8-5.6 3.3-17.2-29.8zm30.9-20.4l14.4-12.5 4.2 4.9-4.8 4.1 18.3 21.1-5.1 4.3-18.3-21.1-4.6 4-4.1-4.8zm33.8-32.8l4.1-5.7 13.8 2.1-6.2-12.5 4.1-5.6 9.7 19.6 12 8.8-3.9 5.3-12-8.8-21.6-3.2z"/><path className="st1" d="M172.7 177.1l4.3-6.3 12.3 8.5 7.5-10.9-12.3-8.5 4.3-6.3 32.6 22.6-4.3 6.3-14.3-10-7.5 10.9 14.3 10-4.3 6.3-32.6-22.6zm41.2-50.6l5.5-5.1 27.2 29-5.5 5.1-27.2-29zm69.6-41.7l-2 7.2c-4.7-1.4-9-1-12.9 1.3-3.4 2-5.6 4.7-6.5 8.3-1 3.6-.6 7 1.3 10.2 1.9 3.3 4.7 5.4 8.4 6.4 3.7.9 7.3.4 10.7-1.6 2.3-1.3 3.9-2.8 4.9-4.7 1-1.9 1.4-4.1 1.2-6.6l-10 5.8-3.6-6.1 17.3-10 .9 1.4c1.7 3 2.6 6.3 2.6 9.9 0 3.6-.9 6.8-2.5 9.7-1.6 2.8-4.1 5.3-7.5 7.2-3.6 2.1-7.2 3.1-10.9 3.2-3.7.1-7.2-.9-10.5-2.8s-5.9-4.6-7.8-7.9c-2.6-4.6-3.4-9.4-2.3-14.4 1.3-6 4.8-10.7 10.5-14 3-1.7 6.1-2.8 9.3-3.2 2.9-.7 5.9-.3 9.4.7zm34.1-20.3l7.4-1.9 3.7 14.5 12.8-3.3-3.7-14.5 7.4-1.9 9.8 38.4-7.4 1.9-4.3-16.9-12.8 3.3 4.3 16.9-7.4 1.9-9.8-38.4zM383.2 53l7.5-.1.7 32.5 11-.2.1 7.2-18.5.3-.8-39.7zm65.1 5l7.5 1.6 6.5 42.1-7.7-1.6-1.3-8.7-15.8-3.4-4.9 7.3-7.7-1.6L448.3 58zm1.6 11.1l-8.1 12.2 10.4 2.3-2.3-14.5zm54.7 6.5L511 79l2.8 31L526 86.9l6.7 3.5-18.5 35.2-6.4-3.4-2.9-31-12.1 23.1-6.7-3.5 18.5-35.2zm60.2 37.7l6.5 6.1c4.2 3.9 6.9 7.4 8 10.3 1.1 3 1.2 6.3.3 9.8-.9 3.6-2.8 7-5.7 10.1-2.1 2.2-4.3 3.9-6.8 5.1-2.5 1.2-5 1.8-7.4 1.8-2.5 0-4.7-.4-6.6-1.4-2-.9-4.8-3.2-8.6-6.7l-6.6-6.2 26.9-28.9zm.5 10.5L548.2 142l2.6 2.4c2.6 2.3 4.6 3.8 6.3 4.3 1.7.5 3.5.4 5.6-.4 2.1-.7 3.9-2.1 5.8-4.1 2.8-3.1 4.3-6.3 4.1-9.6-.1-3-1.9-6-5.3-9.3l-2-1.5zm52.3 59.8l-7.2-2c1.2-3.1 1.3-5.6.1-7.3-.6-.9-1.2-1.4-2-1.6-.8-.2-1.5-.1-2 .2-.6.4-.9.9-1.2 1.6-.4.9-.7 3.4-1.2 7.4-.4 3.7-.8 6-.9 6.9-.4 2.1-1.1 3.8-1.9 5.1-.9 1.3-1.9 2.4-3.3 3.3-2.7 1.8-5.6 2.3-8.6 1.6-3-.7-5.5-2.6-7.5-5.6-1.6-2.3-2.3-4.8-2.3-7.3s.9-5.2 2.5-8.1l6.7 3.2c-1.9 3.5-2.1 6.3-.8 8.4.7 1.1 1.6 1.8 2.7 2.1 1.1.4 2.1.2 2.9-.4.8-.5 1.4-1.3 1.7-2.3.4-1.1.7-3.1 1.1-6 .6-5.6 1.4-9.4 2.2-11.5.9-2.1 2.1-3.7 3.8-4.7 2.3-1.5 4.8-1.9 7.7-1.2 2.8.7 5.1 2.3 6.8 4.9 1.1 1.6 1.7 3.5 1.9 5.5 0 2.2-.3 4.7-1.2 7.8z"/></svg>