<svg xmlns="http://www.w3.org/2000/svg" xmlns:xlink="http://www.w3.org/1999/xlink" viewBox="0 0 432 432" style="overflow:visible;enable-background:new 0 0 432 432;" xml:space="preserve">
<style type="text/css">
	.st1{fill:#231F20;}
</style>
<defs>
</defs>
<g>
	<g>
		<g>
			<path className="st1" d="M294.9,217.5h-26.5l-3.9,9.7h-17.8l26.6-59.3h17l26.5,59.3h-18L294.9,217.5z M281.6,184.5l-7.6,18.9h15.2
				L281.6,184.5z"/>
			<path className="st1" d="M368.7,219.5c-6.7,6.6-14.8,9.2-23.8,9.2c-23.3,0-32.4-14.7-32.5-30.8c-0.1-15.3,10.2-31.5,32.5-31.5
				c8.6,0,16.3,3,23,9.5l-10.3,10.2c-4.2-4.1-8.6-5.2-12.6-5.2c-11.4,0-15.9,9.3-15.9,17c0.1,7.7,4.2,16.4,15.9,16.4
				c4,0,9.7-1.7,14-6L368.7,219.5z"/>
			<path className="st1" d="M386.9,181.7h-17.3v-13.8H421v13.8h-17.4v45.5h-16.7V181.7z"/>
		</g>
	</g>
	<g>
		<path className="st1" d="M35.7,228.2c-20.9,0-30.9-14.5-30.9-30.3C4.6,182.2,14.8,167,35.7,167c7.9,0,15.7,3,21.7,8.9l-5.1,4.7
			c-4.6-4.5-10.6-6.6-16.6-6.6c-15.9,0-23.6,11.5-23.6,23.8c0.2,12,7.5,23.3,23.6,23.3c6,0,12.4-2.4,16.9-6.9l5.2,5.1
			C51.7,225.3,43.8,228.2,35.7,228.2z"/>
		<path className="st1" d="M161,208.6h-1.5l-21.5-30.2v48.8h-7.3v-59.3h8.8l20.9,30.5l20.7-30.5h8.8v59.3h-7.3v-48.7L161,208.6z"/>
		<path className="st1" d="M210.3,227.2H203v-59.3h27c27.3,0,27.3,40.1,0,40.2h-19.7V227.2z M230,174.8h-19.7v26.5H230
			C247.4,201.2,247.4,174.8,230,174.8z"/>
		<path className="st1" d="M121.1,197.7c-0.1,15.5-9.7,30.7-30.1,30.7c-20.3,0-30.2-15.1-30.2-30.7c0-17.2,11.5-30.9,30.3-30.9
			C111.2,167,121.2,182,121.1,197.7z M91.1,173.6c-15.1,0-22.9,11.1-22.9,24.1c0,12,7.3,23.7,22.9,23.7c15.6,0,22.6-12,22.6-23.7
			C113.8,185.7,106.6,173.8,91.1,173.6z"/>
	</g>
	<g>
		<path className="st1" d="M430.9,167.2c0,2-1.3,3.6-3.6,3.6c-2.3,0-3.6-1.7-3.6-3.6c0-2,1.3-3.6,3.6-3.6
			C429.6,163.6,430.9,165.3,430.9,167.2z M427.2,169.9c1.6,0,2.5-1.2,2.5-2.7c0-1.5-0.9-2.7-2.5-2.7c-1.6,0-2.5,1.2-2.5,2.7
			C424.7,168.8,425.6,169.9,427.2,169.9z M428.1,167.7c1.3-0.3,1.1-2.3-0.6-2.3c-0.6,0-1.2,0-1.7,0v3.7h1v-1.1h0.3l0.9,1.1h1v-0.2
			L428.1,167.7z M427.6,166.3c0.6,0,0.6,0.8,0,0.8h-0.8v-0.8H427.6z"/>
	</g>
</g>
<g>
	<path className="st1" d="M6.9,238.4H11v21.5H6.9V238.4z"/>
	<path className="st1" d="M34.4,241.3l-3,2.7c-1.1-1.5-2.2-2.2-3.3-2.2c-0.5,0-1,0.1-1.3,0.4c-0.3,0.3-0.5,0.6-0.5,1s0.1,0.7,0.4,1
		c0.3,0.4,1.3,1.4,3,2.8c1.6,1.3,2.5,2.1,2.8,2.5c0.8,0.8,1.4,1.6,1.8,2.4c0.3,0.8,0.5,1.6,0.5,2.5c0,1.8-0.6,3.2-1.8,4.4
		s-2.8,1.7-4.8,1.7c-1.5,0-2.9-0.4-4-1.1s-2.1-1.9-2.9-3.5l3.4-2.1c1,1.9,2.2,2.9,3.6,2.9c0.7,0,1.3-0.2,1.8-0.6s0.7-0.9,0.7-1.4
		c0-0.5-0.2-1-0.5-1.5s-1.2-1.2-2.4-2.2c-2.3-1.9-3.9-3.4-4.5-4.4c-0.7-1-1-2.1-1-3.1c0-1.5,0.6-2.8,1.7-3.8
		c1.1-1.1,2.5-1.6,4.2-1.6c1.1,0,2.1,0.2,3.1,0.7C32.2,239.1,33.3,240,34.4,241.3z"/>
	<path className="st1" d="M52.8,238.4h4.2l8.3,21.5h-4.3l-1.7-4.4h-8.8l-1.8,4.4h-4.3L52.8,238.4z M54.9,244.1l-2.9,7.4h5.8L54.9,244.1z
		"/>
	<path className="st1" d="M75.6,238.4h4.1v21.5h-4.1V238.4z"/>
	<path className="st1" d="M98.3,238.4h4.2l8.3,21.5h-4.3l-1.7-4.4h-8.8l-1.8,4.4H90L98.3,238.4z M100.5,244.1l-2.9,7.4h5.8L100.5,244.1z
		"/>
	<path className="st1" d="M121.4,238.4h4.2v8.1h7.2v-8.1h4.1v21.5h-4.1v-9.4h-7.2v9.4h-4.2V238.4z"/>
	<path className="st1" d="M167.8,238.4h10.1v3.8h-7l-0.9,3.9c0.2-0.1,0.5-0.1,0.7-0.2s0.5-0.1,0.7-0.1c2,0,3.6,0.7,4.9,2
		c1.3,1.3,1.9,3,1.9,5.1c0,2.1-0.7,3.9-2.1,5.3c-1.4,1.4-3.2,2.2-5.2,2.2c-1.8,0-3.4-0.5-4.7-1.6s-2.2-2.5-2.6-4.3h4.3
		c0.3,0.7,0.8,1.2,1.3,1.5c0.5,0.3,1.1,0.5,1.8,0.5c0.9,0,1.7-0.3,2.3-1s1-1.5,1-2.5c0-1-0.3-1.8-0.9-2.5c-0.6-0.6-1.3-1-2.1-1
		c-0.4,0-0.9,0.1-1.3,0.3s-0.9,0.6-1.3,1l-3.3-0.7L167.8,238.4z"/>
	<path className="st1" d="M199.9,248.2c1,0.6,1.7,1.4,2.3,2.4c0.5,1,0.8,2,0.8,3.2c0,1.2-0.3,2.4-0.9,3.4c-0.6,1.1-1.5,1.8-2.5,2.4
		s-2.4,0.8-4,0.8c-1.7,0-3.1-0.3-4.1-0.8s-1.8-1.3-2.5-2.3c-0.6-1-0.9-2.2-0.9-3.5c0-1.1,0.2-2.2,0.7-3.1c0.5-0.9,1.2-1.8,2.2-2.5
		c-0.6-0.7-1.1-1.3-1.5-2.1c-0.3-0.7-0.5-1.5-0.5-2.3c0-1.1,0.3-2.1,0.8-3.1c0.5-0.9,1.3-1.6,2.3-2.2s2.1-0.8,3.4-0.8
		c1.3,0,2.4,0.3,3.3,0.8c1,0.5,1.7,1.3,2.3,2.2s0.8,2,0.8,3.1c0,0.8-0.1,1.5-0.4,2.1C201.2,246.7,200.7,247.4,199.9,248.2z
		 M195.5,250.4c-1,0-1.8,0.3-2.5,0.9c-0.7,0.6-1,1.3-1,2.1c0,0.9,0.3,1.6,1,2.2c0.6,0.6,1.5,0.9,2.5,0.9c1,0,1.9-0.3,2.5-0.8
		s0.9-1.3,0.9-2.2s-0.3-1.6-1-2.2C197.3,250.7,196.5,250.4,195.5,250.4z M195.4,241.8c-0.7,0-1.2,0.2-1.7,0.7
		c-0.4,0.4-0.7,1-0.7,1.7c0,0.7,0.2,1.3,0.7,1.7c0.5,0.5,1,0.7,1.7,0.7c0.7,0,1.3-0.2,1.7-0.7c0.4-0.5,0.7-1.1,0.7-1.8
		c0-0.7-0.2-1.3-0.7-1.7C196.7,242,196.1,241.8,195.4,241.8z"/>
	<path className="st1" d="M239.9,237.8c3,0,5.7,1.1,7.9,3.3c2.2,2.2,3.3,4.9,3.3,8.1c0,3.1-1.1,5.8-3.2,8c-2.2,2.2-4.8,3.3-7.9,3.3
		c-3.2,0-5.9-1.1-8.1-3.4c-2.1-2.2-3.2-4.9-3.2-8c0-2.1,0.5-4,1.5-5.7s2.4-3.1,4.1-4.1C236,238.3,237.9,237.8,239.9,237.8z
		 M239.9,241.8c-2,0-3.7,0.7-5,2.1s-2,3.1-2,5.3c0,2.4,0.9,4.3,2.6,5.7c1.3,1.1,2.9,1.6,4.6,1.6c1.9,0,3.6-0.7,5-2.1
		c1.4-1.4,2.1-3.1,2.1-5.2c0-2.1-0.7-3.8-2.1-5.2C243.5,242.5,241.9,241.8,239.9,241.8z"/>
	<path className="st1" d="M262.5,238.4h10.7v4h-6.6v3.9h6.6v3.9h-6.6v9.7h-4.1V238.4z"/>
	<path className="st1" d="M284.4,238.4h10.7v4h-6.6v3.9h6.6v3.9h-6.6v9.7h-4.1V238.4z"/>
	<path className="st1" d="M306.3,238.4H318v4h-7.7v3.9h7.7v3.9h-7.7v5.7h7.7v4h-11.8V238.4z"/>
	<path className="st1" d="M329.6,238.4h4.3c2.4,0,4.1,0.2,5.1,0.6c1,0.4,1.8,1.1,2.4,2.1s0.9,2.2,0.9,3.5c0,1.4-0.3,2.6-1,3.6
		c-0.7,1-1.7,1.7-3.1,2.2l5.1,9.6H339l-4.8-9.1h-0.4v9.1h-4.1V238.4z M333.7,246.8h1.3c1.3,0,2.2-0.2,2.7-0.5
		c0.5-0.3,0.7-0.9,0.7-1.7c0-0.5-0.1-0.9-0.4-1.2s-0.6-0.6-1-0.8c-0.4-0.2-1.2-0.2-2.2-0.2h-1.1V246.8z"/>
	<path className="st1" d="M354,238.4h4.1v21.5H354V238.4z"/>
	<path className="st1" d="M370.2,238.4h3.9l9.2,14.2v-14.2h4.1v21.5h-3.9l-9.2-14.1v14.1h-4.1V238.4z"/>
	<path className="st1" d="M419.7,241.9l-2.9,2.9c-1.8-1.9-4-2.9-6.4-2.9c-2.1,0-3.9,0.7-5.3,2.1c-1.4,1.4-2.1,3.1-2.1,5.1
		c0,2.1,0.7,3.8,2.2,5.3c1.5,1.4,3.3,2.2,5.5,2.2c1.4,0,2.6-0.3,3.6-0.9s1.8-1.5,2.4-2.8h-6.2V249h10.8l0,0.9c0,1.9-0.5,3.7-1.5,5.4
		s-2.2,3-3.8,3.9s-3.4,1.3-5.5,1.3c-2.2,0-4.2-0.5-6-1.5c-1.8-1-3.1-2.4-4.2-4.2c-1-1.8-1.5-3.7-1.5-5.8c0-2.9,0.9-5.3,2.8-7.4
		c2.2-2.5,5.1-3.8,8.7-3.8c1.9,0,3.6,0.3,5.3,1C417.1,239.4,418.4,240.4,419.7,241.9z"/>
</g>
</svg>
